<svg xmlns="http://www.w3.org/2000/svg" width="12.297" height="11.528" viewBox="0 0 12.297 11.528">
  <g id="date-solid" transform="translate(0 0)">
    <path id="Path_25258" data-name="Path 25258" d="M13.624,6H12.087V7.153a.845.845,0,1,1-1.691,0V6H5.919V7.153a.845.845,0,1,1-1.691,0V6H2.692A.684.684,0,0,0,2,6.7v8.6a.684.684,0,0,0,.672.7H13.624a.684.684,0,0,0,.672-.7V6.7a.684.684,0,0,0-.672-.7Zm-8.55,7.685H4.305v-.769h.769Zm0-1.921H4.305V11h.769Zm0-1.921H4.305V9.074h.769ZM7.38,13.685H6.611v-.769H7.38Zm0-1.921H6.611V11H7.38Zm0-1.921H6.611V9.074H7.38Zm2.306,3.843H8.917v-.769h.769Zm0-1.921H8.917V11h.769Zm0-1.921H8.917V9.074h.769Zm2.306,3.843h-.769v-.769h.769Zm0-1.921h-.769V11h.769Zm0-1.921h-.769V9.074h.769Z" transform="translate(-2 -4.463)" fill="#fcbb0e"/>
    <path id="Path_25259" data-name="Path 25259" d="M9.384,5.074a.384.384,0,0,0,.384-.384V2.384a.384.384,0,1,0-.769,0V4.69A.384.384,0,0,0,9.384,5.074Z" transform="translate(-6.31 -2)" fill="#fcbb0e"/>
    <path id="Path_25260" data-name="Path 25260" d="M25.384,5.074a.384.384,0,0,0,.384-.384V2.384a.384.384,0,0,0-.769,0V4.69A.384.384,0,0,0,25.384,5.074Z" transform="translate(-16.162 -2)" fill="#fcbb0e"/>
  </g>
</svg>
